<?xml version="1.0" encoding="iso-8859-1"?>
<!-- Generator: Adobe Illustrator 19.0.0, SVG Export Plug-In . SVG Version: 6.00 Build 0)  -->
<svg version="1.1" id="Layer_1" xmlns="http://www.w3.org/2000/svg" xmlns:xlink="http://www.w3.org/1999/xlink" x="0px" y="0px"
	 viewBox="0 0 512 512" style="enable-background:new 0 0 512 512;" xml:space="preserve">
<path style="fill:#CCCCCC;" d="M97.995,190.042l-0.322,1.431v288.834H68.625V181.552C78.177,184.915,88.026,187.8,97.995,190.042z"
	/>
<path style="fill:#FCD559;" d="M512,148.462c-18.101,13.713-42.224,26.758-68.625,36.071c-9.551,3.363-19.401,6.248-29.37,8.49
	c-62.746,14.119-130.203,3.077-158.011-69.376C211.552,239.421,65.895,198.389,0,148.462c18.054,0,32.59-6.284,45.957-15.991
	c33.245-24.159,59.193-69.496,113.735-91.961c32.208-13.26,56.426-9.766,73.681-1.288c0.012,0.012,0.024,0.012,0.036,0.024
	c0.894,0.441,1.777,0.894,2.635,1.359c8.335,4.531,15.072,11.042,19.89,18.686c4.472-7.155,10.637-13.284,18.268-17.708
	c17.457-10.088,43.059-15.502,78.105-1.073c54.542,22.466,80.478,67.802,113.723,91.961
	C479.399,142.177,493.934,148.462,512,148.462z"/>
<g>
	<path style="fill:#E2B844;" d="M233.373,39.222c-3.744,1.216-16.737-5.814-44.144,4.257
		c-65.621,24.114-62.794,80.359-102.193,108.989c-14.655,10.637-30.479,17.803-49.713,18.817
		C23.312,164.321,10.625,156.511,0,148.462c18.054,0,32.59-6.284,45.957-15.991c33.245-24.159,59.193-69.496,113.735-91.961
		C191.9,27.25,216.119,30.743,233.373,39.222z"/>
	<path style="fill:#E2B844;" d="M352.308,40.51c-80.979,0-96.373,50.357-96.373,50.357V59.291
		c4.472-7.155,10.637-13.284,18.268-17.708C291.66,31.495,317.262,26.081,352.308,40.51z"/>
	<path style="fill:#E2B844;" d="M255.934,90.867V78.787C256.686,85.954,255.934,90.867,255.934,90.867z"/>
</g>
<g>
</g>
<g>
</g>
<g>
</g>
<g>
</g>
<g>
</g>
<g>
</g>
<g>
</g>
<g>
</g>
<g>
</g>
<g>
</g>
<g>
</g>
<g>
</g>
<g>
</g>
<g>
</g>
<g>
</g>
</svg>
